<?xml version="1.0" encoding="utf-8"?>
<!-- Generator: Adobe Illustrator 16.0.0, SVG Export Plug-In . SVG Version: 6.00 Build 0)  -->
<!DOCTYPE svg PUBLIC "-//W3C//DTD SVG 1.1//EN" "http://www.w3.org/Graphics/SVG/1.1/DTD/svg11.dtd">
<svg version="1.1" id="Layer_1" xmlns="http://www.w3.org/2000/svg" xmlns:xlink="http://www.w3.org/1999/xlink" x="0px" y="0px"
	 width="352px" height="360px" viewBox="182.5 0 352 360" enable-background="new 182.5 0 352 360" xml:space="preserve">
<g>
	<path fill="#777777" d="M360,14.352c-93.789,0-169.841,76.036-169.841,169.841c0,75.043,48.665,138.704,116.148,161.165
		c8.485,1.574,11.602-3.686,11.602-8.171c0-4.051-0.158-17.43-0.23-31.621c-47.25,10.273-57.221-20.039-57.221-20.039
		c-7.726-19.631-18.857-24.852-18.857-24.852c-15.413-10.542,1.161-10.322,1.161-10.322c17.052,1.195,26.036,17.504,26.036,17.504
		c15.148,25.959,39.732,18.455,49.424,14.117c1.524-10.978,5.926-18.473,10.783-22.713c-37.724-4.289-77.383-18.855-77.383-83.934
		c0-18.543,6.638-33.694,17.502-45.591c-1.766-4.275-7.58-21.549,1.643-44.944c0,0,14.259-4.564,46.715,17.41
		c13.551-3.766,28.083-5.659,42.52-5.724c14.428,0.065,28.969,1.952,42.545,5.718c32.417-21.974,46.659-17.409,46.659-17.409
		c9.245,23.392,3.432,40.668,1.668,44.944c10.89,11.896,17.479,27.047,17.479,45.59c0,65.234-39.731,79.593-77.552,83.801
		c6.096,5.271,11.522,15.609,11.522,31.452c0,22.725-0.196,41.015-0.196,46.607c0,4.521,3.06,9.816,11.666,8.148
		c67.443-22.483,116.052-86.124,116.052-161.14C529.841,90.394,453.797,14.355,360,14.355V14.352z"/>
	<path fill="#777777" d="M254.486,258.205c-0.374,0.844-1.702,1.096-2.911,0.52c-1.237-0.551-1.926-1.701-1.527-2.548
		c0.365-0.872,1.696-1.11,2.925-0.528c1.237,0.554,1.94,1.715,1.51,2.56L254.486,258.205z M261.366,265.88
		c-0.807,0.751-2.391,0.401-3.465-0.788c-1.113-1.181-1.322-2.764-0.498-3.525c0.838-0.748,2.374-0.395,3.487,0.787
		c1.108,1.197,1.328,2.768,0.479,3.529L261.366,265.88z M268.065,275.658c-1.041,0.727-2.745,0.049-3.797-1.463
		c-1.041-1.512-1.041-3.326,0.028-4.049c1.049-0.728,2.728-0.07,3.797,1.426c1.035,1.533,1.035,3.347-0.028,4.084V275.658z
		 M277.236,285.111c-0.928,1.027-2.914,0.75-4.365-0.646c-1.482-1.369-1.896-3.318-0.965-4.343c0.945-1.029,2.939-0.742,4.399,0.647
		c1.482,1.365,1.929,3.317,0.937,4.34L277.236,285.111z M289.893,290.6c-0.413,1.33-2.32,1.935-4.247,1.366
		c-1.921-0.583-3.178-2.138-2.785-3.481c0.394-1.342,2.315-1.969,4.253-1.364C289.035,287.699,290.292,289.246,289.893,290.6z
		 M303.795,291.614c0.048,1.399-1.583,2.56-3.6,2.587c-2.033,0.049-3.679-1.088-3.698-2.467c0-1.414,1.598-2.56,3.628-2.598
		c2.017-0.037,3.673,1.088,3.673,2.475L303.795,291.614z M316.727,289.414c0.242,1.365-1.162,2.768-3.167,3.143
		c-1.969,0.365-3.797-0.483-4.05-1.836c-0.242-1.402,1.188-2.805,3.156-3.168c2.008-0.346,3.808,0.479,4.062,1.865L316.727,289.414
		L316.727,289.414z"/>
</g>
</svg>
